<svg id="Capa_1" enable-background="new 0 0 512 512" height="512" viewBox="0 0 512 512" width="512" xmlns="http://www.w3.org/2000/svg"><path d="m437 150c24.814 0 45-20.186 45-45s-20.186-45-45-45h-181c-8.291 0-15 6.709-15 15s6.709 15 15 15h181c8.276 0 15 6.724 15 15s-6.724 15-15 15c-8.291 0-15 6.709-15 15s6.709 15 15 15z" fill="#725d57"/><path d="m437 150c41.353 0 75-33.647 75-75s-33.647-75-75-75h-211c-8.291 0-15 6.709-15 15s6.709 15 15 15h211c24.814 0 45 20.186 45 45s-20.186 45-45 45c-8.291 0-15 6.709-15 15s6.709 15 15 15z" fill="#725d57"/><path d="m0 315c0 26.7 5.4 52.899 15 76l61.8 31 73.2-31c0-32.401 17.401-61.901 43.5-77.5l-35.099-65.099-54.6-38.401-46.501-32.701c-9.899 9.901-18.898 20.7-26.398 32.701-19.502 30.3-30.902 66.301-30.902 105z" fill="#ffb64c"/><path d="m0 315c0 26.7 5.4 52.899 15 76l61.8 31 73.2-31c0-32.401 17.401-61.901 43.5-77.5l-35.099-65.099-54.6-38.401h-72.9c-19.501 30.3-30.901 66.301-30.901 105z" fill="#ff9100"/><g fill="#53433f"><path d="m356.605 355.605c21.856-21.855 34.395-52.119 34.395-83.027 0-8.291-6.709-15-15-15s-15 6.709-15 15c0 23.013-9.331 45.542-25.605 61.816-5.859 5.859-5.859 15.352 0 21.211 5.859 5.86 15.351 5.86 21.21 0z"/><path d="m296.605 355.605c18.486-18.486 30.396-42.949 33.545-68.892.996-8.218-4.863-15.703-13.096-16.699-8.408-.952-15.703 4.878-16.699 13.096-2.329 19.307-11.206 37.515-24.961 51.284-5.859 5.859-5.859 15.352 0 21.211 5.86 5.86 15.352 5.86 21.211 0z"/><path d="m236.605 355.605c18.457-18.457 30.366-42.891 33.516-68.789 1.011-8.218-4.849-15.703-13.066-16.699-8.364-1.055-15.703 4.849-16.699 13.066-2.358 19.277-11.221 37.471-24.961 51.211-5.859 5.859-5.859 15.352 0 21.211 5.859 5.86 15.351 5.86 21.21 0z"/></g><path d="m57.299 177.299 136.201 136.201c13.5-8.401 30.399-13.5 47.5-13.5h30l27.599-90 2.401-7.5-30-82.5h-76c-53.699 0-102.599 21.899-137.701 57.299z" fill="#ff9100"/><path d="m90 210 103.5 103.5c13.5-8.401 30.399-13.5 47.5-13.5h30l27.599-90z" fill="#ff641a"/><path d="m271 120v180h45c63.9 0 120.399-36.599 147.7-90 11.7-22.5 18.3-47.999 18.3-75 0-8.401-6.599-15-15-15z" fill="#ffb64c"/><path d="m463.7 210h-192.7v90h45c63.9 0 120.399-36.599 147.7-90z" fill="#ff9100"/><path d="m150 391c0 49.629 41.371 91 91 91h45c8.276 0 15-6.724 15-15 0-8.291 6.709-15 15-15s15 6.709 15 15c0 5.284-1.082 10.285-2.763 15h17.763c24.814 0 45-20.186 45-45 0-8.291 6.709-15 15-15s15 6.709 15 15c0 41.353-33.647 75-75 75h-151c-80.951 0-150.505-50.605-179.956-121z" fill="#ff641a"/><circle cx="346" cy="195" fill="#725d57" r="15"/></svg>