<svg height="511pt" viewBox="0 0 511.99969 511" width="511pt" xmlns="http://www.w3.org/2000/svg"><path d="m245.003906 22.496094c-135.3125 0-245.003906 109.691406-245.003906 245 0 8.039062.398438 15.988281 1.15625 23.832031.011719.035156 80.707031 226.429687 285.390625 217.644531 115.519531-19.734375 203.457031-120.328125 203.457031-241.476562 0-135.308594-109.691406-245-245-245zm0 0" fill="#1d3260"/><path d="m431.199219 179.679688c-20.085938 0-39.46875-6.488282-54.792969-18.621094-3.582031-2.835938-4.183594-8.039063-1.347656-11.617188 2.835937-3.582031 8.039062-4.183594 11.617187-1.351562 15.476563 12.257812 36.191407 17.375 56.839844 14.0625 19.398437-3.117188 35.96875-13.179688 45.460937-27.597656 8.113282-12.320313 8.730469-28.304688 1.699219-43.847657-10.464843-23.136719-35.066406-39.515625-65.804687-43.820312-43.984375-6.15625-60.957032-22.011719-67.449219-34.234375-2.144531-4.03125-.613281-9.039063 3.421875-11.183594s9.042969-.613281 11.183594 3.421875c3.839844 7.222656 16.105468 20.152344 55.136718 25.617187 36.390626 5.089844 65.765626 25.046876 78.582032 53.382813 9.28125 20.511719 8.175781 42.851563-2.949219 59.757813-12.039063 18.285156-32.6875 30.984374-56.652344 34.835937-4.988281.800781-9.988281 1.195313-14.945312 1.195313zm0 0" fill="#ff7133"/><path d="m502.164062 135.277344c-4.65625 0-8.550781-3.214844-9.617187-7.542969-.960937 2.371094-2.144531 4.652344-3.570313 6.820313-9.492187 14.417968-26.0625 24.476562-45.457031 27.597656-20.652343 3.3125-41.367187-1.804688-56.839843-14.0625-3.582032-2.835938-8.785157-2.230469-11.621094 1.351562-2.835938 3.578125-2.230469 8.78125 1.347656 11.617188 15.324219 12.136718 34.707031 18.625 54.796875 18.625 4.953125-.003906 9.953125-.398438 14.941406-1.199219 23.964844-3.851563 44.613281-16.550781 56.652344-34.835937 2.152344-3.269532 3.925781-6.75 5.324219-10.375-1.660156 1.25-3.71875 2.003906-5.957032 2.003906zm0 0" fill="#ed5926"/><path d="m296.945312 144.390625c4.746094-10.316406 14.566407-20.34375 25.878907-29.277344 16.132812-3.277343 43.191406-7.394531 68.394531-4.789062 16.832031 1.738281 31.011719-2.121094 41.003906-5.554688 6.914063-2.378906 12.492188 6.113281 7.53125 11.484375-25.417968 27.535156-113.925781 90.285156-186.859375 92.78125 18.535157-19.984375 35.101563-45.191406 44.050781-64.644531zm0 0" fill="#ff7133"/><path d="m315.914062 146.355469c0-14.421875 7.949219-26.980469 19.699219-33.558594-4.742187.753906-9.058593 1.558594-12.789062 2.3125-11.3125 8.9375-21.136719 18.964844-25.882813 29.28125-8.949218 19.453125-25.511718 44.65625-44.050781 64.640625 29.253906-1 61.007813-11.695312 90.195313-25.921875-15.730469-4.8125-27.171876-19.445313-27.171876-36.753906zm0 0" fill="#ed5926"/><path d="m375.460938 119.417969c-3.371094-9.117188-13.496094-13.773438-22.613282-10.402344-9.117187 3.375-13.773437 13.496094-10.402344 22.613281 3.371094 9.117188 13.496094 13.777344 22.613282 10.402344 9.117187-3.371094 13.773437-13.496094 10.402344-22.613281zm0 0" fill="#deeefa"/><path d="m405.054688 50.816406c-39.609376-5.542968-62.199219-18.679687-71.953126-27.230468-2.914062-2.554688-7.171874-2.84375-10.339843-.613282l-.070313.046875c-4.367187 3.074219-4.726562 9.378907-.785156 12.976563 10.242188 9.359375 33.476562 24.570312 80.855469 31.203125 61.226562 8.566406 82.585937 59.585937 64.101562 87.664062-20.054687 30.46875-70.046875 39.082031-102.296875 13.535157-3.582031-2.832032-8.785156-2.230469-11.621094 1.351562-2.835937 3.578125-2.230468 8.78125 1.351563 11.617188 39.234375 31.074218 100.566406 21.816406 126.386719-17.410157 25.589844-38.875-3.039063-102.984375-75.628906-113.140625zm0 0" fill="#ffa733"/><path d="m462.246094 182.359375c-5.476563 0-9.917969-4.441406-9.917969-9.917969 0-.984375.148437-1.929687.414063-2.828125-24.050782 17.746094-61.96875 19.542969-88.175782-1.214843-3.582031-2.832032-8.785156-2.230469-11.621094 1.351562-2.835937 3.582031-2.230468 8.78125 1.351563 11.617188 32.117187 25.4375 79.042969 23.84375 109.171875.910156-.402344.046875-.808594.082031-1.222656.082031zm0 0" fill="#ff8c33"/><path d="m367.425781 135.011719c5.054688-1.867188 8.375-6.351563 9.011719-11.351563-.152344-1.417968-.457031-2.839844-.976562-4.238281-2.394532-6.472656-8.191407-10.679687-14.613282-11.378906-1.046875.128906-2.089844.367187-3.121094.75-7.238281 2.675781-10.9375 10.71875-8.257812 17.960937 2.675781 7.238282 10.71875 10.9375 17.957031 8.257813zm0 0" fill="#1d3260"/><path d="m307.378906 279.207031-26.550781-26.125c-3.257813-3.203125-3.300781-8.4375-.097656-11.695312 3.207031-3.257813 8.441406-3.296875 11.699219-.09375l26.550781 26.125c3.253906 3.199219 3.296875 8.4375.09375 11.691406-3.1875 3.242187-8.421875 3.320313-11.695313.097656zm0 0" fill="#ff7133"/><path d="m286.628906 258.214844c-2.792968 0-5.589844-1.050782-7.734375-3.164063-2.449219-2.410156-5.671875-3.933593-9.085937-4.300781l-78.375-8.378906c-6.054688-.644532-10.441406-6.078125-9.792969-12.136719.648437-6.054687 6.085937-10.449219 12.136719-9.792969l78.375 8.378906c8.34375.890626 16.230468 4.621094 22.210937 10.507813 4.339844 4.269531 4.398438 11.253906.125 15.59375-2.160156 2.195313-5.007812 3.292969-7.859375 3.292969zm0 0" fill="#ed5926"/><path d="m223.921875 335-20.757813-29.953125c-2.601562-3.753906-1.664062-8.90625 2.089844-11.507813 3.753906-2.601562 8.90625-1.667968 11.507813 2.085938l20.757812 29.953125c2.601563 3.753906 1.664063 8.90625-2.089843 11.511719-3.738282 2.589844-8.894532 1.683594-11.507813-2.089844zm0 0" fill="#ff7133"/><path d="m209.972656 311.367188c-3.492187 0-6.933594-1.65625-9.074218-4.75-2.050782-2.960938-5.097657-5.105469-8.578126-6.046876l-41.207031-11.09375c-5.878906-1.585937-9.363281-7.636718-7.777343-13.519531 1.582031-5.878906 7.636718-9.363281 13.515624-7.78125l41.207032 11.097657c8.507812 2.292968 15.953125 7.542968 20.972656 14.78125 3.46875 5.007812 2.222656 11.878906-2.785156 15.347656-1.917969 1.324218-4.105469 1.964844-6.273438 1.964844zm0 0" fill="#ed5926"/><path d="m198.089844 371.289062-20.253906-28.503906c-2.648438-3.722656-1.773438-8.886718 1.949218-11.53125 3.722656-2.648437 8.886719-1.773437 11.53125 1.949219l20.257813 28.503906c2.644531 3.722657 1.773437 8.886719-1.949219 11.53125-3.75 2.664063-8.90625 1.75-11.535156-1.949219zm0 0" fill="#ff7133"/><path d="m184.585938 349.023438c-3.449219 0-6.847657-1.613282-9-4.640626-2.050782-2.886718-5.0625-4.980468-8.476563-5.898437l-42.886719-11.527344c-5.882812-1.582031-9.367187-7.632812-7.789062-13.511719 1.582031-5.882812 7.632812-9.367187 13.515625-7.789062l42.882812 11.53125c8.355469 2.246094 15.71875 7.367188 20.734375 14.417969 3.527344 4.964843 2.363282 11.851562-2.601562 15.378906-1.9375 1.378906-4.167969 2.039063-6.378906 2.039063zm0 0" fill="#ed5926"/><path d="m172.328125 401.785156-15.265625-20.304687c-2.746094-3.652344-2.011719-8.835938 1.640625-11.582031 3.648437-2.742188 8.835937-2.011719 11.578125 1.640624l15.269531 20.308594c2.746094 3.648438 2.011719 8.835938-1.640625 11.582032-3.652344 2.742187-8.839844 2.007812-11.582031-1.644532zm0 0" fill="#ff7133"/><path d="m163.679688 387.539062c-3.347657 0-6.652344-1.519531-8.820313-4.398437-2.199219-2.925781-5.378906-4.964844-8.949219-5.742187l-33.4375-7.292969c-5.949218-1.296875-9.722656-7.171875-8.425781-13.125 1.300781-5.953125 7.175781-9.714844 13.125-8.425781l33.4375 7.292968c8.734375 1.90625 16.503906 6.886719 21.875 14.035156 3.664063 4.867188 2.683594 11.78125-2.183594 15.441407-1.988281 1.492187-4.3125 2.214843-6.621093 2.214843zm0 0" fill="#ed5926"/><path d="m278.972656 467.21875c-5.347656-10.042969-17.777344-13.757812-27.867187-8.5-41.546875 21.660156-80.53125 20.8125-80.53125 20.8125l-7.1875 1.996094c-4.679688 3.015625-7.910157 6.410156-10.109375 9.824218h3.683594s50.230468 10.910157 100.675781 1.351563c5.046875-.957031 9.984375-.328125 14.34375 1.503906 8.9375-5.671875 12.066406-17.460937 6.992187-26.988281zm0 0" fill="#ffa733"/><path d="m227.246094 479c0-4.417969 1.636718-8.449219 4.324218-11.542969-33.453124 12.671875-60.996093 12.074219-60.996093 12.074219l-7.1875 1.996094c-4.679688 3.019531-7.910157 6.410156-10.109375 9.824218h3.683594s38.265624 8.308594 81.539062 4.070313c-6.578125-2.558594-11.253906-8.9375-11.253906-16.421875zm0 0" fill="#ff8c33"/><path d="m122.5 428.035156c-.421875 4.023438-3.070312 7.699219-7.105469 9.363282-7.738281 3.195312-13.246093 9.382812-18.578125 15.371093-1.769531 1.988281-3.5 3.925781-5.261718 5.710938 18.53125 14.910156 39.269531 27.175781 61.660156 36.226562 2.707031-5.359375 7.84375-10.929687 17.363281-15.171875-.003906 0-22.976563-33.851562-48.078125-51.5zm0 0" fill="#ffa733"/><path d="m107.046875 451.964844c-1.457031-1.867188-3.265625-3.402344-5.300781-4.578125-1.695313 1.753906-3.320313 3.578125-4.929688 5.382812-1.769531 1.988281-3.5 3.925781-5.261718 5.710938 18.53125 14.910156 39.269531 27.175781 61.660156 36.226562-19.214844-9.777343-38.648438-33.089843-46.167969-42.742187zm0 0" fill="#ff8c33"/><path d="m104.976562 384.449219c-2.953124.59375-6 .03125-8.542968-1.625-7.242188-4.710938-15.257813-6.273438-23.429688-6.273438-8.605468 0-17.378906 1.734375-25.589844 3.359375-6.546874 1.292969-12.828124 2.53125-18.628906 2.886719 15.917969 29.78125 37.800782 55.890625 64.0625 76.726563 7.097656-7.207032 13.347656-16.535157 23.179688-20.59375 6.074218-2.507813 9.484375-8.984376 7.742187-15.324219-2.816406-10.257813-8.324219-25.035157-18.792969-39.15625zm0 0" fill="#ff8c33"/><path d="m98.910156 446.03125c-35.816406-13.566406-37.417968-49.941406-36.828125-62.640625.09375-2.011719-.152343-4.023437-.714843-5.945313-4.738282.652344-9.433594 1.570313-13.953126 2.464844-6.546874 1.292969-12.828124 2.53125-18.628906 2.886719 15.917969 29.78125 37.800782 55.890625 64.0625 76.726563 3.472656-3.523438 6.742188-7.554688 10.324219-11.226563-1.3125-.929687-2.742187-1.691406-4.261719-2.265625zm0 0" fill="#ff7133"/><path d="m122.910156 328.210938c-2.640625 2.753906-6.453125 3.9375-10.214844 3.175781-3.667968-.746094-6.644531-3.261719-7.957031-6.726563-8.007812-21.144531-28.121093-29.929687-45.867187-37.679687-20.472656-8.9375-38.238282-16.699219-33.78125-40.707031-4.789063 6.21875-16.355469 22.644531-23.933594 45.054687 3.230469 33.449219 13.171875 64.933594 28.484375 93.078125 20.507813-1.539062 46.058594-13.09375 65.890625-.195312 7.121094 4.632812 16.734375 1.378906 19.691406-6.582032 4.746094-12.785156 9.558594-30.988281 8.316406-50.082031-.207031.21875-.421874.449219-.628906.664063zm0 0" fill="#ffa733"/><path d="m61.765625 379.042969c-.28125-1.441407-.738281-2.851563-1.371094-4.1875-18.21875-38.433594 1.847657-62.601563 12.519531-71.984375 2.15625-1.894532 3.777344-4.269532 4.820313-6.894532-6.164063-3.449218-12.65625-6.285156-18.863281-8.996093-20.472656-8.9375-38.238282-16.699219-33.78125-40.707031-4.789063 6.214843-16.355469 22.644531-23.933594 45.050781 3.230469 33.449219 13.171875 64.9375 28.484375 93.082031 9.933594-.746094 21.046875-3.835938 32.125-5.363281zm0 0" fill="#ff8c33"/><path d="m151.511719 252.050781c-.074219 0-.140625 0-.210938 0-25.355469 0-41.859375-9.859375-49.050781-29.304687-6.125-16.5625-4.359375-33.703125 5.105469-49.578125 3.183593-5.347657 7.164062-10.386719 11.75-15.023438l-.882813-1.449219s-81.011718 30.597657-94.246094 86.839844c-11.710937 49.777344 62.089844 36.496094 79.214844 81.710938 3.265625 8.621094 14.539063 10.765625 20.914063 4.109375 17.675781-18.460938 42.914062-49.46875 46.46875-78.964844-6.800781 1.078125-13.195313 1.648437-19.0625 1.660156zm0 0" fill="#ff8c33"/><path d="m77.0625 297.484375c1.085938-2.15625 1.761719-4.519531 1.964844-6.96875 2.898437-35.121094 24.945312-46.445313 35.335937-49.855469-5.347656-4.59375-9.394531-10.570312-12.113281-17.914062-6.125-16.5625-4.359375-33.707032 5.105469-49.578125 3.183593-5.347657 7.164062-10.386719 11.75-15.023438l-.882813-1.449219s-81.011718 30.601563-94.246094 86.839844c-8.277343 35.167969 26.132813 38.863282 53.085938 53.949219zm0 0" fill="#ff7133"/><path d="m359.535156 81.144531c5.757813-1.011719 8.453125 6.847657 3.308594 9.621094-21.496094 11.574219-54.59375 32.222656-64.691406 54.179687-15.367188 33.40625-53.171875 83.792969-84.902344 95.527344-31.730469 11.738282-95.382812 29.265625-112.550781-17.152344-17.171875-46.417968 28.628906-88.742187 75.585937-95.421874 46.960938-6.679688 94.5625-42.320313 104.542969-27.976563 8.007813 11.507813 46.105469-13.054687 78.707031-18.777344zm0 0" fill="#ffa733"/><path d="m164.804688 199.609375c-11.292969-30.527344-.738282-57.289063 18.3125-72.878906-2.273438.449219-4.554688.84375-6.832032 1.167969-46.957031 6.679687-92.757812 49.003906-75.585937 95.421874 17.167969 46.417969 80.820312 28.890626 112.550781 17.152344 5.109375-1.890625 10.382812-4.796875 15.691406-8.460937-24.054687 3.859375-52.066406.234375-64.136718-32.402344zm0 0" fill="#ff8c33"/><path d="m245.003906 512.5c14.160156 0 28.039063-1.21875 41.542969-3.527344-3.117187-12.574218-15.640625-20.992187-28.910156-18.476562-50.445313 9.5625-100.675781-1.351563-100.675781-1.351563h-2.109376c-1.292968 1.644531-2.308593 3.308594-3.125 4.957031 28.753907 11.847657 60.246094 18.398438 93.277344 18.398438zm0 0" fill="#ff7133"/></svg>